<svg xmlns="http://www.w3.org/2000/svg" width="1739" height="759" viewBox="0 0 1739 759" version="1.1"><path d="M 276 8.842 C 276 9.305, 274.196 10.224, 271.990 10.885 C 267.274 12.298, 261.897 17.356, 258.816 23.277 C 256.165 28.372, 255.861 39.489, 258.221 45.045 C 260.151 49.588, 265.400 55.199, 270.500 58.170 C 274.421 60.454, 275.115 60.506, 305.769 60.814 C 343 61.189, 340.182 59.984, 339.921 75.418 C 339.784 83.532, 339.477 85.210, 337.979 86.011 C 337.001 86.535, 329.293 87.086, 320.850 87.236 C 306.117 87.497, 305.295 87.622, 300.384 90.340 C 292.436 94.740, 290.627 99.159, 290 115.702 C 289.705 123.502, 289.039 129.364, 288.372 130.030 C 287.752 130.649, 285.727 131.532, 283.872 131.992 C 273.622 134.535, 263.050 138.089, 255.228 141.620 C 252.328 142.929, 249.510 144, 248.965 144 C 247.612 144, 224.793 155.118, 218 159.087 C 214.975 160.855, 211.600 162.799, 210.500 163.408 C 198.847 169.858, 176.405 187.865, 163.449 201.160 C 138.124 227.146, 120.312 253.070, 107.216 283 C 106.133 285.475, 104.291 289.695, 103.123 292.377 C 101.955 295.060, 101 298.007, 101 298.927 C 101 299.847, 100.621 301.028, 100.158 301.550 C 99.696 302.072, 98.320 305.875, 97.100 310 C 95.881 314.125, 94.235 319.610, 93.442 322.188 C 92.649 324.766, 92 327.777, 92 328.879 C 92 329.981, 91.550 331.160, 91 331.500 C 90.450 331.840, 90 334.382, 90 337.149 C 90 344.462, 87.898 345.924, 77.321 345.967 C 69.472 345.999, 69.002 346.132, 65.666 349.279 C 61.090 353.595, 60.800 355.948, 61.186 385.679 C 61.481 408.372, 61.629 410.032, 63.590 412.679 C 68.255 418.976, 44.627 418.475, 350.471 418.757 C 660.083 419.042, 636.847 419.531, 641.100 412.643 C 642.922 409.693, 643.025 407.727, 642.771 380.639 C 642.500 351.778, 642.500 351.778, 639.038 348.889 C 635.850 346.229, 634.937 346, 627.510 346 C 615.581 346, 615.499 345.903, 611.470 327 C 609.882 319.551, 604.659 303.006, 599.598 289.398 C 596.212 280.293, 586.248 259.990, 581.600 252.723 C 579.620 249.628, 578 246.662, 578 246.131 C 578 245.601, 577.611 245.017, 577.135 244.833 C 576.659 244.650, 574.122 241.125, 571.497 237 C 568.873 232.875, 566.396 229.275, 565.993 229 C 565.591 228.725, 562.558 225.125, 559.255 221 C 550.507 210.078, 530.026 189.649, 521 182.843 C 519.075 181.391, 516.575 179.371, 515.445 178.352 C 514.315 177.333, 512.668 176.050, 511.784 175.500 C 510.900 174.950, 505.535 171.350, 499.862 167.500 C 488.773 159.975, 488.748 159.960, 476 153.481 C 460.843 145.779, 436.799 136.043, 428 134.045 C 426.075 133.608, 423.825 133.007, 423 132.709 C 422.175 132.411, 420.340 131.915, 418.921 131.607 C 415.083 130.775, 414.001 127.170, 413.994 115.203 C 413.991 109.316, 413.547 102.909, 413.007 100.965 C 411.873 96.885, 405.871 90.637, 401.500 88.986 C 399.850 88.364, 391.975 87.634, 384 87.365 C 362.945 86.656, 365 88.036, 365 74.603 C 365 66.631, 365.379 62.930, 366.272 62.189 C 367.086 61.514, 378.773 61.019, 398.724 60.817 C 421.980 60.580, 430.220 60.182, 431.151 59.250 C 431.838 58.562, 433.153 58, 434.074 58 C 436.690 58, 444.202 49.577, 446.307 44.284 C 447.771 40.600, 448.086 37.985, 447.676 32.908 C 446.773 21.746, 441.593 14.651, 431.351 10.551 C 424.979 8, 424.979 8, 350.489 8 C 309.520 8, 276 8.379, 276 8.842 M 161.190 60.026 C 159.369 61.136, 157.284 63.496, 156.555 65.272 C 154.139 71.160, 155.129 73.657, 170.322 100 C 174.788 107.746, 177.071 111.725, 179.721 116.389 C 181.250 119.078, 183.036 122.205, 183.692 123.339 C 189.166 132.804, 199.914 134.913, 205.481 127.614 C 209.289 122.621, 208.884 117.674, 203.893 108.253 C 201.635 103.989, 199.253 99.825, 198.600 99 C 197.948 98.175, 196.769 96.150, 195.981 94.500 C 195.193 92.850, 192.737 88.586, 190.524 85.024 C 185.479 76.906, 184.568 75.338, 182.381 71 C 176.481 59.301, 168.856 55.352, 161.190 60.026 M 533.445 59.093 C 529.608 60.177, 527.059 62.897, 522.757 70.500 C 517.091 80.511, 516.541 81.444, 515.391 83 C 514.782 83.825, 512.584 87.650, 510.507 91.500 C 508.431 95.350, 505.892 99.694, 504.866 101.154 C 503.840 102.614, 503 104.053, 503 104.351 C 503 104.649, 501.425 107.580, 499.500 110.865 C 495.153 118.282, 494.828 123.443, 498.462 127.364 C 503.165 132.440, 509.692 133.382, 514.979 129.750 C 518.319 127.455, 519.370 125.899, 527.647 111 C 530.244 106.325, 534.536 99.017, 537.185 94.761 C 539.833 90.504, 542 86.846, 542 86.632 C 542 86.418, 543.575 83.627, 545.500 80.430 C 550.951 71.378, 550.188 63.702, 543.500 60.295 C 540.176 58.602, 536.667 58.183, 533.445 59.093 M 85.900 117.965 C 80.539 120.838, 78.676 124.276, 79.249 130.243 C 79.724 135.188, 79.811 135.293, 100.113 155.679 C 122.362 178.020, 127.187 182, 132.026 182 C 137.625 182, 144 175.611, 144 170 C 144 168.845, 143.257 166.461, 142.349 164.700 C 140.115 160.372, 98.367 118.331, 95.655 117.679 C 94.470 117.394, 92.600 116.908, 91.500 116.599 C 90.400 116.289, 87.880 116.904, 85.900 117.965 M 609.188 117.850 C 605.853 119.628, 566.430 158.211, 562.897 163.154 C 561.706 164.821, 561 167.490, 561 170.326 C 561 174.392, 561.418 175.202, 565.180 178.422 C 570.171 182.695, 574.594 183.121, 579.346 179.787 C 585.196 175.683, 623.199 136.542, 624.692 133.083 C 625.899 130.285, 625.952 128.899, 624.982 125.437 C 623.993 121.903, 623.012 120.780, 619.014 118.604 C 613.414 115.556, 613.480 115.561, 609.188 117.850 M 28.886 193.798 C 27.448 193.968, 24.989 195.445, 23.422 197.082 C 20.983 199.627, 20.571 200.864, 20.571 205.646 C 20.571 212.275, 21.576 213.381, 34.313 220.766 C 38.804 223.370, 43.249 225.950, 44.191 226.500 C 48.631 229.090, 64.880 238.523, 68 240.321 C 79.944 247.203, 84.911 247.773, 90.465 242.896 C 93.526 240.209, 94 239.191, 94 235.301 C 94 228.251, 91.764 225.940, 75.817 216.500 C 74.888 215.950, 71.512 213.942, 68.314 212.037 C 65.116 210.133, 61.600 208.077, 60.500 207.468 C 53.592 203.645, 48.716 200.856, 45.350 198.803 C 37.902 194.260, 34.284 193.160, 28.886 193.798 M 669.279 193.960 C 667.507 194.387, 663.007 196.534, 659.279 198.731 C 655.551 200.929, 648.675 204.983, 644 207.741 C 639.325 210.499, 633.925 213.642, 632 214.727 C 622.954 219.821, 617.229 223.572, 614.250 226.355 C 611.404 229.015, 611.003 230.020, 611.022 234.446 C 611.055 241.958, 615.065 246, 622.484 246 C 626.600 246, 628.138 245.286, 644 236.008 C 650.325 232.309, 657.525 228.145, 660 226.755 C 662.475 225.366, 666.750 222.966, 669.500 221.424 C 672.250 219.881, 674.725 218.363, 675 218.050 C 675.275 217.737, 677.413 216.242, 679.750 214.726 C 684 211.972, 684 211.972, 684 205.673 C 684 200.094, 683.686 199.079, 681.250 196.792 C 678.097 193.832, 673.918 192.844, 669.279 193.960 M 336.500 214.053 C 316.744 215.264, 297.169 220.232, 279 228.646 C 269.795 232.909, 261.586 237.210, 259.921 238.642 C 259.053 239.389, 257.928 240.006, 257.421 240.013 C 256.915 240.021, 255.375 240.915, 254 242 C 252.625 243.085, 247.757 246.752, 243.183 250.149 C 238.608 253.545, 230.331 261.165, 224.789 267.081 C 215.029 277.500, 202.061 294.329, 202.020 296.628 C 202.009 297.248, 201.393 298.259, 200.651 298.875 C 199.154 300.117, 190.550 317.521, 186.994 326.500 C 182.697 337.350, 181.873 341.444, 183.532 343.714 C 184.719 345.339, 187.271 345.527, 211.853 345.796 C 226.712 345.958, 240.316 345.716, 242.084 345.258 C 244.870 344.536, 245.939 343.184, 250.085 335.139 C 255.608 324.423, 260.328 317.908, 268.611 309.573 C 274.906 303.237, 288.397 292.152, 290.953 291.214 C 291.804 290.902, 294.179 289.601, 296.230 288.323 C 298.282 287.045, 300.607 286, 301.397 286 C 302.187 286, 302.983 285.601, 303.167 285.113 C 303.620 283.907, 320.310 278.009, 326.500 276.868 C 336.841 274.962, 352.631 274.156, 362.010 275.055 C 380.967 276.872, 388.718 278.754, 399.144 284.073 C 401.221 285.133, 403.420 286, 404.031 286 C 404.642 286, 409.723 289.008, 415.321 292.685 C 432.319 303.849, 446.294 319.143, 454.902 336 C 460.424 346.816, 457.989 346.157, 491.145 345.805 C 523.927 345.458, 523.752 345.499, 521.936 338.481 C 521.369 336.291, 520.507 333.600, 520.019 332.500 C 519.531 331.400, 518.552 328.700, 517.843 326.500 C 515.395 318.905, 499.738 290.005, 496.986 288 C 496.608 287.725, 495.145 285.700, 493.735 283.500 C 489.669 277.158, 475.761 262.401, 466.755 254.874 C 451.028 241.729, 437.102 233.283, 419.129 225.990 C 414.933 224.288, 410.600 222.495, 409.500 222.008 C 408.400 221.520, 404.575 220.437, 401 219.602 C 397.425 218.767, 391.800 217.395, 388.500 216.554 C 382.418 215.005, 359.827 212.875, 352.500 213.161 C 350.300 213.247, 343.100 213.648, 336.500 214.053 M 93.538 452.939 C 92.604 454.449, 98.284 476.333, 100.158 478.450 C 100.621 478.973, 101 480.351, 101 481.513 C 101 482.675, 102.125 485.958, 103.500 488.808 C 104.875 491.658, 106 494.347, 106 494.783 C 106 495.936, 117.400 518.626, 120.930 524.500 C 122.582 527.250, 124.686 530.850, 125.604 532.500 C 126.987 534.987, 135.948 547.915, 138.773 551.500 C 139.206 552.050, 142.171 555.784, 145.361 559.798 C 153.001 569.411, 318.037 734.582, 324.500 739.084 C 327.250 740.999, 331.525 743.158, 334 743.881 C 336.475 744.604, 339.281 745.601, 340.236 746.097 C 344.380 748.251, 367.929 746.404, 370.618 743.715 C 371.012 743.322, 372.383 743, 373.667 743 C 374.950 743, 376 742.652, 376 742.227 C 376 741.802, 377.555 740.617, 379.457 739.593 C 383.994 737.150, 549.698 571.174, 559.255 559.500 C 566.772 550.318, 576.429 536.895, 579.400 531.500 C 580.309 529.850, 582.164 526.700, 583.522 524.500 C 590.543 513.132, 599.080 494.535, 603.719 480.500 C 604.810 477.200, 606.688 471.550, 607.893 467.943 C 609.097 464.337, 610.177 459.387, 610.291 456.943 C 610.500 452.500, 610.500 452.500, 564.869 452.240 C 519.237 451.980, 519.237 451.980, 517.489 455.740 C 510.393 470.996, 505.850 479.975, 504.942 480.536 C 504.356 480.898, 503.506 482.169, 503.053 483.360 C 500.345 490.484, 478.958 515.521, 467 525.567 C 453.192 537.167, 444.522 542.785, 428.749 550.354 C 419.383 554.849, 400.412 561.406, 394 562.365 C 392.075 562.653, 388.250 563.393, 385.500 564.009 C 372.119 567.005, 328.547 567.769, 321.860 565.124 C 320.562 564.611, 316.800 563.661, 313.500 563.014 C 307.784 561.894, 292.755 557.651, 288.500 555.958 C 265.599 546.841, 248.433 535.964, 228.619 518.016 C 222.546 512.514, 204 489.231, 204 487.108 C 204 486.590, 203.662 486.017, 203.250 485.833 C 202.193 485.364, 197.844 478.338, 195.306 473 C 184.531 450.344, 190.368 452.528, 139.809 452.240 C 111.450 452.079, 93.906 452.343, 93.538 452.939 M 256 453.560 C 256 455.856, 261.446 463.411, 268.424 470.796 C 295.810 499.780, 340.718 512.727, 379.500 502.818 C 393.355 499.278, 409.979 492.189, 417.649 486.550 C 419.931 484.873, 422.895 482.705, 424.235 481.733 C 432.550 475.704, 449 456.564, 449 452.917 C 449 452.419, 407.258 452.026, 352.500 452.010 C 265.226 451.984, 256 452.132, 256 453.560 M 1346.500 543.196 C 1337.501 545.887, 1334.527 549.497, 1336.184 555.720 C 1336.804 558.047, 1338.294 559.674, 1341.554 561.585 C 1349.266 566.104, 1349.433 566.852, 1349.230 596 C 1349.018 626.251, 1347.556 655.407, 1346.051 659.365 C 1344.983 662.176, 1341.338 665.903, 1339.594 665.967 C 1339.096 665.985, 1337.184 667.148, 1335.344 668.551 C 1332.597 670.646, 1332.006 671.763, 1332.032 674.801 C 1332.072 679.474, 1333.413 681.212, 1339.454 684.424 C 1344.298 687, 1344.298 687, 1386.526 687 C 1422.843 687, 1428.929 686.790, 1430 685.500 C 1430.732 684.618, 1432.916 684, 1435.301 684 C 1439.815 684, 1443.937 682.836, 1451.777 679.348 C 1454.680 678.057, 1457.272 677, 1457.539 677 C 1457.805 677, 1460.674 675.190, 1463.915 672.978 C 1469.488 669.174, 1476.995 661.873, 1477.005 660.247 C 1477.007 659.836, 1478.357 658.062, 1480.005 656.304 C 1481.652 654.547, 1483 652.499, 1483 651.754 C 1483 651.009, 1483.389 649.973, 1483.865 649.450 C 1485.628 647.516, 1489.836 634.265, 1491.001 626.981 C 1492.729 616.179, 1491.374 595.012, 1488.537 588.500 C 1487.818 586.850, 1486.636 583.700, 1485.910 581.500 C 1483.103 572.998, 1473.439 561.131, 1464 554.597 C 1458.222 550.597, 1456.371 549.782, 1445.561 546.485 C 1437.001 543.874, 1435.513 543.741, 1410.561 543.371 C 1396.227 543.158, 1376.625 542.830, 1367 542.642 C 1357.375 542.453, 1348.150 542.703, 1346.500 543.196 M 647 543.891 C 643.425 544.287, 639.150 545.246, 637.500 546.023 C 632.183 548.528, 627 552.231, 627 553.526 C 627 554.219, 626.325 555.045, 625.500 555.362 C 624.675 555.678, 624 556.674, 624 557.575 C 624 559.703, 629.782 567, 631.468 567 C 633.416 567, 639.854 574.551, 640.613 577.725 C 640.977 579.251, 641.570 580.950, 641.929 581.500 C 642.289 582.050, 643.159 584.300, 643.863 586.500 C 644.568 588.700, 645.739 591.850, 646.467 593.500 C 647.194 595.150, 648.339 597.850, 649.011 599.500 C 649.683 601.150, 650.631 603.281, 651.117 604.236 C 651.603 605.191, 652 606.852, 652 607.927 C 652 609.002, 652.400 610.129, 652.889 610.432 C 653.378 610.734, 654.074 612.160, 654.436 613.601 C 654.798 615.042, 655.912 618.084, 656.913 620.360 C 657.913 622.637, 659.961 627.650, 661.463 631.500 C 662.965 635.350, 664.661 639.625, 665.231 641 C 667.057 645.403, 667.786 647.347, 670.482 655 C 671.935 659.125, 673.546 663.281, 674.062 664.236 C 674.578 665.191, 675 666.457, 675 667.048 C 675 668.758, 682.087 682.827, 683.567 684.056 C 686.380 686.390, 692.537 689, 695.231 689 C 698.186 689, 704.370 685.560, 707.133 682.380 C 709.267 679.923, 714 669.774, 714 667.654 C 714 666.744, 714.450 666, 715 666 C 715.550 666, 716 665.127, 716 664.059 C 716 662.991, 716.450 661.840, 717 661.500 C 717.550 661.160, 718 659.983, 718 658.883 C 718 657.784, 719.125 654.870, 720.500 652.407 C 721.875 649.944, 723 647.300, 723 646.530 C 723 645.045, 726.559 635.988, 730.600 627.188 C 732.878 622.227, 733.251 621.897, 736.238 622.188 C 738.480 622.407, 739.802 623.248, 740.656 625 C 742.419 628.618, 746 636.910, 746 637.376 C 746 637.594, 748.025 642.077, 750.500 647.338 C 752.975 652.599, 755 657.365, 755 657.930 C 755 658.494, 756.102 661.328, 757.449 664.228 C 758.795 667.128, 760.685 671.713, 761.649 674.418 C 763.189 678.744, 767.249 683.823, 772.306 687.750 C 773.191 688.438, 775.773 689, 778.044 689 C 781.767 689, 782.752 688.410, 788.086 682.993 C 791.339 679.690, 794 676.351, 794 675.574 C 794 674.798, 794.630 672.888, 795.399 671.331 C 799.686 662.657, 801 659.703, 801 658.742 C 801 656.947, 804.332 650, 805.192 650 C 805.637 650, 806 648.515, 806 646.700 C 806 644.885, 806.369 642.973, 806.820 642.450 C 807.271 641.928, 808.917 638.350, 810.476 634.500 C 812.036 630.650, 813.692 627.072, 814.156 626.550 C 814.620 626.028, 815 624.854, 815 623.943 C 815 623.032, 817.547 615.359, 820.661 606.893 C 830.631 579.780, 832.151 575.562, 833.098 572.372 C 833.609 570.652, 836.273 566.962, 839.019 564.173 C 847.505 555.552, 847.790 551.275, 840.197 546.472 C 835.549 543.531, 835.353 543.501, 821.500 543.562 C 809.515 543.615, 806.826 543.927, 802.821 545.725 C 796.817 548.419, 794.248 552.771, 796.068 557.164 C 797.291 560.117, 802.718 565, 804.777 565 C 807.266 565, 807.419 575.245, 805 579.897 C 804.541 580.779, 803.381 584.200, 802.422 587.500 C 801.463 590.800, 800.338 594.175, 799.923 595 C 799.508 595.825, 798.472 598.108, 797.621 600.072 C 796.758 602.066, 794.871 604.193, 793.350 604.886 C 790.852 606.024, 790.391 605.877, 787.813 603.118 C 786.266 601.463, 785 599.409, 785 598.554 C 785 597.699, 784.550 597, 784 597 C 783.450 597, 783 596.304, 783 595.454 C 783 594.604, 780.864 589.541, 778.252 584.204 C 772.129 571.689, 771.784 566.369, 776.804 561.883 C 781.196 557.960, 781.746 551.833, 777.966 548.960 C 772.139 544.532, 766.690 543.675, 744 543.619 C 725.515 543.573, 721.613 543.836, 716.174 545.495 C 708.416 547.861, 705 550.983, 705 555.708 C 705 559.540, 705.786 560.566, 711.522 564.223 C 713.785 565.665, 716.302 568.428, 717.361 570.629 C 718.384 572.758, 719.622 575.281, 720.111 576.236 C 721.319 578.596, 721.239 586.734, 720 587.500 C 719.450 587.840, 719 589.223, 719 590.573 C 719 591.923, 718.572 593.809, 718.048 594.764 C 717.525 595.719, 716.345 598.196, 715.425 600.270 C 713.257 605.159, 708.536 608.690, 706.465 606.971 C 705.659 606.302, 705 604.958, 705 603.985 C 705 603.011, 704.325 601.955, 703.500 601.638 C 702.675 601.322, 702 600.175, 702 599.090 C 702 598.006, 701.550 596.840, 701 596.500 C 700.450 596.160, 700 595.002, 700 593.927 C 700 592.852, 699.588 591.191, 699.084 590.236 C 698.580 589.281, 697.434 586.700, 696.536 584.500 C 695.638 582.300, 694.475 579.719, 693.952 578.764 C 693.428 577.809, 693 576.148, 693 575.073 C 693 573.998, 692.550 572.840, 692 572.500 C 689.934 571.223, 690.958 566.465, 694.476 561 C 696.297 558.172, 695.876 552.628, 693.657 550.198 C 689.333 545.464, 683.948 544.072, 668.167 543.606 C 660.100 543.367, 650.575 543.496, 647 543.891 M 891 543.983 C 884.840 544.755, 876.397 546.781, 873.764 548.118 C 872.809 548.603, 870.698 549, 869.073 549 C 867.448 549, 865.840 549.450, 865.500 550 C 865.160 550.550, 864.065 551, 863.067 551 C 860.760 551, 852.869 555.382, 850.539 557.957 C 847.832 560.948, 849.348 564.820, 855.305 570.129 C 860.500 574.758, 860.500 574.758, 861.385 586.129 C 862.388 599.008, 862.456 618.904, 861.567 639.500 C 860.847 656.205, 859.087 662.724, 853.872 668.003 C 848.335 673.608, 847.603 675.465, 849.681 678.636 C 852.464 682.883, 858.886 687.067, 861.584 686.390 C 862.864 686.068, 865.342 686.523, 867.107 687.403 C 871.483 689.587, 893.459 689.681, 897.597 687.534 C 899.151 686.728, 901.340 686.287, 902.461 686.554 C 904.728 687.095, 911.412 681.426, 912.482 678.058 C 913.061 676.231, 910.012 668.744, 908.243 667.650 C 907.036 666.904, 907.643 617.535, 908.888 615.210 C 910.230 612.701, 914.985 611.381, 916.155 613.192 C 916.845 614.260, 917.164 614.246, 917.890 613.118 C 919.333 610.880, 925.471 612.555, 927.633 615.777 C 931.391 621.375, 931.970 625.073, 931.970 643.500 C 931.971 662.398, 931.163 667.154, 926.946 673.076 C 925.876 674.579, 925 676.796, 925 678.003 C 925 680.959, 930.548 685.991, 933.856 686.035 C 935.310 686.055, 937.625 686.714, 939 687.500 C 942.782 689.662, 966.191 689.576, 969.531 687.388 C 971.182 686.306, 973.065 685.977, 975.256 686.388 C 978.114 686.924, 979.048 686.489, 982.760 682.885 C 985.092 680.622, 986.988 678.034, 986.973 677.135 C 986.958 676.236, 984.959 673.267, 982.531 670.537 C 978.117 665.575, 978.117 665.575, 977.530 654.537 C 977.207 648.467, 976.711 634.739, 976.429 624.032 C 976.075 610.613, 975.527 604.088, 974.664 603.032 C 973.977 602.189, 972.758 600.150, 971.957 598.500 C 968.558 591.502, 959.093 585.036, 949.996 583.499 C 936.041 581.142, 926.252 584.919, 915.655 596.750 C 914.393 598.158, 912.491 598.999, 910.570 598.998 C 907.500 598.996, 907.500 598.996, 907.212 573.748 C 907.053 559.862, 906.697 547.750, 906.421 546.834 C 905.900 545.106, 900.899 542.890, 898.101 543.147 C 897.220 543.228, 894.025 543.604, 891 543.983 M 1522 543.863 C 1515.778 544.368, 1512.294 545.216, 1509 547.026 C 1502.689 550.495, 1502 551.351, 1502 555.713 C 1502 559.061, 1502.724 560.283, 1507.500 565 C 1511.492 568.943, 1513 571.179, 1513 573.157 C 1513 574.656, 1513.450 576.160, 1514 576.500 C 1515.354 577.337, 1515.311 600.289, 1513.953 601.647 C 1512.695 602.905, 1513.278 633.711, 1514.716 642 C 1516.329 651.296, 1518.961 658.675, 1522.049 662.561 C 1523.672 664.604, 1525 666.609, 1525 667.017 C 1525 667.856, 1535.325 675.878, 1538.712 677.671 C 1549.909 683.599, 1550.775 684, 1552.364 684 C 1553.129 684, 1554.283 684.636, 1554.928 685.414 C 1556.355 687.133, 1563.773 687.966, 1583.398 688.613 C 1593.130 688.933, 1598.661 688.739, 1599.348 688.052 C 1599.927 687.473, 1602.505 687, 1605.078 687 C 1608.015 687, 1610.218 686.442, 1611 685.500 C 1611.685 684.675, 1613.321 684, 1614.636 684 C 1615.951 684, 1617.809 683.588, 1618.764 683.084 C 1619.719 682.580, 1622.075 681.422, 1624 680.511 C 1625.925 679.600, 1628.570 678.254, 1629.879 677.521 C 1633.066 675.734, 1644.937 664.012, 1646.102 661.500 C 1646.612 660.400, 1647.890 658.150, 1648.942 656.500 C 1649.993 654.850, 1650.887 652.064, 1650.927 650.309 C 1650.967 648.554, 1651.450 646.840, 1652 646.500 C 1652.629 646.111, 1653.003 635.064, 1653.008 616.691 C 1653.016 590.682, 1653.954 573.048, 1655.616 567.680 C 1655.925 566.680, 1658.501 564.361, 1661.340 562.529 C 1666.295 559.329, 1671 555.409, 1671 554.479 C 1671 553.347, 1664.069 547.079, 1660.968 545.406 C 1657.912 543.759, 1655.240 543.545, 1638.500 543.606 C 1618.354 543.679, 1615.236 544.269, 1610.262 548.950 C 1604.928 553.968, 1606.868 558.840, 1616.063 563.521 C 1623.812 567.466, 1623.428 565.636, 1624.022 601.397 C 1624.547 632.978, 1624.200 638.509, 1621.219 646.031 C 1620.109 648.832, 1613.149 655.996, 1611.529 656.006 C 1610.963 656.010, 1609.150 656.763, 1607.500 657.681 C 1605.243 658.937, 1602.022 659.342, 1594.500 659.317 C 1585.460 659.286, 1584.020 659.016, 1579.500 656.499 C 1573.827 653.341, 1569.740 649.112, 1567.420 644 C 1566.547 642.075, 1565.359 639.621, 1564.781 638.548 C 1564.157 637.388, 1563.532 625.414, 1563.241 609.048 C 1562.817 585.140, 1562.967 580.988, 1564.376 577.628 C 1565.269 575.498, 1566 572.964, 1566 571.997 C 1566 570.069, 1571.699 564, 1573.510 564 C 1575.374 564, 1579 559.152, 1579 556.659 C 1579 553.031, 1573.184 547.407, 1567.500 545.539 C 1561.783 543.660, 1536.136 542.715, 1522 543.863 M 1398.035 568.934 C 1396.913 571.031, 1396.548 652.709, 1397.642 656.795 C 1397.992 658.103, 1399.905 659.931, 1402.089 661.045 C 1412.562 666.389, 1428.008 659.854, 1433.889 647.592 C 1439.341 636.225, 1439.500 635.401, 1439.500 618.500 C 1439.500 598.514, 1436.785 585.099, 1431.460 578.770 C 1430.107 577.162, 1429 575.476, 1429 575.022 C 1429 574.264, 1424.989 571.532, 1419.136 568.304 C 1417.693 567.508, 1413.321 567, 1407.921 567 C 1400.194 567, 1398.939 567.246, 1398.035 568.934 M 1188.897 583.044 C 1183.754 583.891, 1176.717 588.307, 1172.968 593.041 C 1170.259 596.460, 1169.249 597.059, 1166.623 596.804 C 1163.792 596.528, 1163.388 596.046, 1162.299 591.633 C 1160.282 583.461, 1158.966 582.647, 1149.002 583.404 C 1144.328 583.759, 1139.153 584.458, 1137.502 584.957 C 1135.851 585.456, 1132.475 586.382, 1130 587.015 C 1119.906 589.595, 1117.428 590.416, 1115.921 591.678 C 1115.053 592.405, 1113.953 593, 1113.476 593 C 1112.999 593, 1111.347 594.209, 1109.805 595.687 C 1107.597 597.802, 1107 599.275, 1107 602.606 C 1107 606.299, 1107.413 607.093, 1110.250 608.852 C 1118.325 613.860, 1118.003 612.755, 1117.978 635.289 C 1117.954 657.594, 1117.018 661.977, 1111.508 665.587 C 1107.529 668.194, 1104.201 673.603, 1104.764 676.548 C 1105.028 677.925, 1107.326 680.856, 1109.872 683.060 C 1113.793 686.455, 1114.989 686.980, 1117.697 686.498 C 1119.574 686.164, 1122.413 686.563, 1124.569 687.465 C 1129.193 689.397, 1158.894 689.706, 1160.758 687.842 C 1161.395 687.205, 1164.168 686.638, 1166.922 686.580 C 1171.334 686.489, 1172.406 686.010, 1175.964 682.535 C 1183.028 675.638, 1181.037 669.652, 1170.115 664.954 C 1166.666 663.470, 1164.833 662.044, 1164.547 660.621 C 1164.313 659.455, 1163.801 657.150, 1163.409 655.500 C 1163.017 653.850, 1162.517 646.647, 1162.297 639.494 C 1161.675 619.220, 1164.879 614.663, 1174.397 622.286 C 1181.790 628.207, 1183.607 629, 1189.786 629 C 1199.629 629, 1206.492 624.468, 1211.121 614.912 C 1214.039 608.887, 1214.096 608.498, 1213.003 602.021 C 1212.122 596.792, 1211.076 594.346, 1208.188 590.757 C 1206.160 588.235, 1203.600 585.855, 1202.500 585.467 C 1196.220 583.252, 1192.098 582.518, 1188.897 583.044 M 1039 583.617 C 1032.581 584.860, 1023.331 588.385, 1020.718 590.584 C 1019.130 591.920, 1017.482 592.798, 1017.057 592.535 C 1015.485 591.564, 1002.342 606.511, 999.502 612.500 C 997.937 615.800, 995.999 619.277, 995.195 620.226 C 993.023 622.791, 993.111 647.601, 995.307 651.620 C 996.172 653.204, 998.060 656.975, 999.502 660 C 1002.415 666.110, 1012.466 676.962, 1018.250 680.242 C 1020.313 681.411, 1022 682.735, 1022 683.184 C 1022 683.633, 1022.916 684, 1024.035 684 C 1025.155 684, 1027.165 684.717, 1028.503 685.594 C 1029.841 686.471, 1031.513 686.979, 1032.218 686.724 C 1032.923 686.469, 1035.017 686.876, 1036.872 687.630 C 1040.962 689.291, 1056.126 689.474, 1057.719 687.881 C 1058.334 687.266, 1060.643 686.787, 1062.849 686.817 C 1065.176 686.849, 1067.361 686.270, 1068.053 685.436 C 1068.708 684.646, 1069.871 684, 1070.636 684 C 1071.401 684, 1072.809 683.600, 1073.764 683.111 C 1074.719 682.622, 1077.230 681.384, 1079.344 680.361 C 1083.859 678.176, 1093 669.529, 1093 667.445 C 1093 666.650, 1093.450 666, 1094 666 C 1096.211 666, 1094.777 661.304, 1091.633 658.250 C 1087.746 654.474, 1085.754 654.243, 1081.171 657.037 C 1077.391 659.342, 1068.436 662.068, 1062.500 662.720 C 1056.672 663.361, 1048.438 659.939, 1042.801 654.534 C 1036.584 648.572, 1034.592 641.391, 1038.427 638.765 C 1039.017 638.361, 1050.601 638.024, 1064.169 638.015 C 1091.103 637.999, 1093.527 637.542, 1096.080 632.003 C 1096.714 630.626, 1097.631 628.719, 1098.117 627.764 C 1099.318 625.403, 1099.236 618.264, 1098 617.500 C 1097.450 617.160, 1097.007 615.896, 1097.016 614.691 C 1097.041 611.190, 1091.850 602.014, 1087.500 597.870 C 1080.636 591.330, 1075.129 587.909, 1067 585.134 C 1063.315 583.876, 1043.268 582.790, 1039 583.617 M 1266 583.594 C 1257.721 585.094, 1250.317 587.496, 1249 589.109 C 1248.725 589.446, 1247.150 590.428, 1245.500 591.293 C 1241.264 593.512, 1230.494 604.348, 1227.852 609.049 C 1226.631 611.222, 1225.265 613, 1224.816 613 C 1224.367 613, 1224 613.873, 1224 614.941 C 1224 616.009, 1223.550 617.160, 1223 617.500 C 1222.450 617.840, 1222 619.432, 1222 621.039 C 1222 622.645, 1221.284 625.749, 1220.409 627.936 C 1219.329 630.636, 1218.969 633.772, 1219.290 637.706 C 1219.836 644.416, 1221.809 653.073, 1223.105 654.450 C 1223.597 654.972, 1224 656.016, 1224 656.770 C 1224 658.748, 1229.605 666.643, 1235.452 672.903 C 1241.258 679.117, 1248.380 684, 1251.637 684 C 1252.872 684, 1254.160 684.450, 1254.500 685 C 1254.840 685.550, 1256.116 686, 1257.337 686 C 1258.557 686, 1260.561 686.705, 1261.791 687.566 C 1265.444 690.125, 1288.636 688.493, 1294.500 685.265 C 1295.600 684.659, 1298.525 683.203, 1301 682.028 C 1309.629 677.934, 1314.127 674.764, 1316.443 671.144 C 1320.034 665.533, 1320.318 662.769, 1317.702 658.878 C 1314.979 654.827, 1312.396 654.266, 1307.875 656.743 C 1306.019 657.760, 1302.475 659.187, 1300 659.912 C 1297.525 660.638, 1294.326 661.658, 1292.891 662.179 C 1286.835 664.377, 1279.681 662.777, 1272.151 657.543 C 1264.962 652.544, 1260.696 642.704, 1264.200 639.200 C 1265.069 638.331, 1272.234 638, 1290.153 638 C 1306.066 638, 1315.770 637.606, 1317.327 636.897 C 1318.658 636.290, 1320.704 634.092, 1321.874 632.011 C 1326.172 624.364, 1323.704 612.176, 1315.630 601.177 C 1311.325 595.312, 1300.570 587.675, 1293.500 585.461 C 1288.565 583.916, 1270.856 582.714, 1266 583.594 M 1040.878 603.328 C 1037.432 606.183, 1036 609.105, 1036 613.279 C 1036 618.938, 1038.292 620.130, 1048.520 619.791 C 1056.630 619.522, 1057.437 619.305, 1059.221 616.910 C 1060.720 614.899, 1060.994 613.483, 1060.446 610.566 C 1059.282 604.360, 1056.463 602.042, 1049.500 601.566 C 1044.444 601.220, 1043.087 601.498, 1040.878 603.328 M 1268 602.793 C 1266.625 603.723, 1264.952 605.163, 1264.282 605.992 C 1262.703 607.946, 1262.644 617.244, 1264.200 618.800 C 1264.948 619.548, 1268.654 620, 1274.045 620 C 1284.378 620, 1286 618.889, 1286 611.808 C 1286 605.802, 1282.490 602, 1276.945 602 C 1274.865 602, 1272.564 601.798, 1271.832 601.551 C 1271.099 601.303, 1269.375 601.862, 1268 602.793" stroke="none" fill="#068b47" fill-rule="evenodd"/><path d="M 276 8.842 C 276 9.305, 274.196 10.224, 271.990 10.885 C 267.274 12.298, 261.897 17.356, 258.816 23.277 C 256.165 28.372, 255.861 39.489, 258.221 45.045 C 260.151 49.588, 265.400 55.199, 270.500 58.170 C 274.421 60.454, 275.115 60.506, 305.769 60.814 C 343 61.189, 340.182 59.984, 339.921 75.418 C 339.784 83.532, 339.477 85.210, 337.979 86.011 C 337.001 86.535, 329.293 87.086, 320.850 87.236 C 306.117 87.497, 305.295 87.622, 300.384 90.340 C 292.436 94.740, 290.627 99.159, 290 115.702 C 289.705 123.502, 289.039 129.364, 288.372 130.030 C 287.752 130.649, 285.727 131.532, 283.872 131.992 C 273.622 134.535, 263.050 138.089, 255.228 141.620 C 252.328 142.929, 249.510 144, 248.965 144 C 247.612 144, 224.793 155.118, 218 159.087 C 214.975 160.855, 211.600 162.799, 210.500 163.408 C 198.847 169.858, 176.405 187.865, 163.449 201.160 C 138.124 227.146, 120.312 253.070, 107.216 283 C 106.133 285.475, 104.291 289.695, 103.123 292.377 C 101.955 295.060, 101 298.007, 101 298.927 C 101 299.847, 100.621 301.028, 100.158 301.550 C 99.696 302.072, 98.320 305.875, 97.100 310 C 95.881 314.125, 94.235 319.610, 93.442 322.188 C 92.649 324.766, 92 327.777, 92 328.879 C 92 329.981, 91.550 331.160, 91 331.500 C 90.450 331.840, 90 334.382, 90 337.149 C 90 344.462, 87.898 345.924, 77.321 345.967 C 69.472 345.999, 69.002 346.132, 65.666 349.279 C 61.090 353.595, 60.800 355.948, 61.186 385.679 C 61.481 408.372, 61.629 410.032, 63.590 412.679 C 68.255 418.976, 44.627 418.475, 350.471 418.757 C 660.083 419.042, 636.847 419.531, 641.100 412.643 C 642.922 409.693, 643.025 407.727, 642.771 380.639 C 642.500 351.778, 642.500 351.778, 639.038 348.889 C 635.850 346.229, 634.937 346, 627.510 346 C 615.581 346, 615.499 345.903, 611.470 327 C 609.882 319.551, 604.659 303.006, 599.598 289.398 C 596.212 280.293, 586.248 259.990, 581.600 252.723 C 579.620 249.628, 578 246.662, 578 246.131 C 578 245.601, 577.611 245.017, 577.135 244.833 C 576.659 244.650, 574.122 241.125, 571.497 237 C 568.873 232.875, 566.396 229.275, 565.993 229 C 565.591 228.725, 562.558 225.125, 559.255 221 C 550.507 210.078, 530.026 189.649, 521 182.843 C 519.075 181.391, 516.575 179.371, 515.445 178.352 C 514.315 177.333, 512.668 176.050, 511.784 175.500 C 510.900 174.950, 505.535 171.350, 499.862 167.500 C 488.773 159.975, 488.748 159.960, 476 153.481 C 460.843 145.779, 436.799 136.043, 428 134.045 C 426.075 133.608, 423.825 133.007, 423 132.709 C 422.175 132.411, 420.340 131.915, 418.921 131.607 C 415.083 130.775, 414.001 127.170, 413.994 115.203 C 413.991 109.316, 413.547 102.909, 413.007 100.965 C 411.873 96.885, 405.871 90.637, 401.500 88.986 C 399.850 88.364, 391.975 87.634, 384 87.365 C 362.945 86.656, 365 88.036, 365 74.603 C 365 66.631, 365.379 62.930, 366.272 62.189 C 367.086 61.514, 378.773 61.019, 398.724 60.817 C 421.980 60.580, 430.220 60.182, 431.151 59.250 C 431.838 58.562, 433.153 58, 434.074 58 C 436.690 58, 444.202 49.577, 446.307 44.284 C 447.771 40.600, 448.086 37.985, 447.676 32.908 C 446.773 21.746, 441.593 14.651, 431.351 10.551 C 424.979 8, 424.979 8, 350.489 8 C 309.520 8, 276 8.379, 276 8.842 M 161.190 60.026 C 159.369 61.136, 157.284 63.496, 156.555 65.272 C 154.139 71.160, 155.129 73.657, 170.322 100 C 174.788 107.746, 177.071 111.725, 179.721 116.389 C 181.250 119.078, 183.036 122.205, 183.692 123.339 C 189.166 132.804, 199.914 134.913, 205.481 127.614 C 209.289 122.621, 208.884 117.674, 203.893 108.253 C 201.635 103.989, 199.253 99.825, 198.600 99 C 197.948 98.175, 196.769 96.150, 195.981 94.500 C 195.193 92.850, 192.737 88.586, 190.524 85.024 C 185.479 76.906, 184.568 75.338, 182.381 71 C 176.481 59.301, 168.856 55.352, 161.190 60.026 M 533.445 59.093 C 529.608 60.177, 527.059 62.897, 522.757 70.500 C 517.091 80.511, 516.541 81.444, 515.391 83 C 514.782 83.825, 512.584 87.650, 510.507 91.500 C 508.431 95.350, 505.892 99.694, 504.866 101.154 C 503.840 102.614, 503 104.053, 503 104.351 C 503 104.649, 501.425 107.580, 499.500 110.865 C 495.153 118.282, 494.828 123.443, 498.462 127.364 C 503.165 132.440, 509.692 133.382, 514.979 129.750 C 518.319 127.455, 519.370 125.899, 527.647 111 C 530.244 106.325, 534.536 99.017, 537.185 94.761 C 539.833 90.504, 542 86.846, 542 86.632 C 542 86.418, 543.575 83.627, 545.500 80.430 C 550.951 71.378, 550.188 63.702, 543.500 60.295 C 540.176 58.602, 536.667 58.183, 533.445 59.093 M 85.900 117.965 C 80.539 120.838, 78.676 124.276, 79.249 130.243 C 79.724 135.188, 79.811 135.293, 100.113 155.679 C 122.362 178.020, 127.187 182, 132.026 182 C 137.625 182, 144 175.611, 144 170 C 144 168.845, 143.257 166.461, 142.349 164.700 C 140.115 160.372, 98.367 118.331, 95.655 117.679 C 94.470 117.394, 92.600 116.908, 91.500 116.599 C 90.400 116.289, 87.880 116.904, 85.900 117.965 M 609.188 117.850 C 605.853 119.628, 566.430 158.211, 562.897 163.154 C 561.706 164.821, 561 167.490, 561 170.326 C 561 174.392, 561.418 175.202, 565.180 178.422 C 570.171 182.695, 574.594 183.121, 579.346 179.787 C 585.196 175.683, 623.199 136.542, 624.692 133.083 C 625.899 130.285, 625.952 128.899, 624.982 125.437 C 623.993 121.903, 623.012 120.780, 619.014 118.604 C 613.414 115.556, 613.480 115.561, 609.188 117.850 M 28.886 193.798 C 27.448 193.968, 24.989 195.445, 23.422 197.082 C 20.983 199.627, 20.571 200.864, 20.571 205.646 C 20.571 212.275, 21.576 213.381, 34.313 220.766 C 38.804 223.370, 43.249 225.950, 44.191 226.500 C 48.631 229.090, 64.880 238.523, 68 240.321 C 79.944 247.203, 84.911 247.773, 90.465 242.896 C 93.526 240.209, 94 239.191, 94 235.301 C 94 228.251, 91.764 225.940, 75.817 216.500 C 74.888 215.950, 71.512 213.942, 68.314 212.037 C 65.116 210.133, 61.600 208.077, 60.500 207.468 C 53.592 203.645, 48.716 200.856, 45.350 198.803 C 37.902 194.260, 34.284 193.160, 28.886 193.798 M 669.279 193.960 C 667.507 194.387, 663.007 196.534, 659.279 198.731 C 655.551 200.929, 648.675 204.983, 644 207.741 C 639.325 210.499, 633.925 213.642, 632 214.727 C 622.954 219.821, 617.229 223.572, 614.250 226.355 C 611.404 229.015, 611.003 230.020, 611.022 234.446 C 611.055 241.958, 615.065 246, 622.484 246 C 626.600 246, 628.138 245.286, 644 236.008 C 650.325 232.309, 657.525 228.145, 660 226.755 C 662.475 225.366, 666.750 222.966, 669.500 221.424 C 672.250 219.881, 674.725 218.363, 675 218.050 C 675.275 217.737, 677.413 216.242, 679.750 214.726 C 684 211.972, 684 211.972, 684 205.673 C 684 200.094, 683.686 199.079, 681.250 196.792 C 678.097 193.832, 673.918 192.844, 669.279 193.960 M 336.500 214.053 C 316.744 215.264, 297.169 220.232, 279 228.646 C 269.795 232.909, 261.586 237.210, 259.921 238.642 C 259.053 239.389, 257.928 240.006, 257.421 240.013 C 256.915 240.021, 255.375 240.915, 254 242 C 252.625 243.085, 247.757 246.752, 243.183 250.149 C 238.608 253.545, 230.331 261.165, 224.789 267.081 C 215.029 277.500, 202.061 294.329, 202.020 296.628 C 202.009 297.248, 201.393 298.259, 200.651 298.875 C 199.154 300.117, 190.550 317.521, 186.994 326.500 C 182.697 337.350, 181.873 341.444, 183.532 343.714 C 184.719 345.339, 187.271 345.527, 211.853 345.796 C 226.712 345.958, 240.316 345.716, 242.084 345.258 C 244.870 344.536, 245.939 343.184, 250.085 335.139 C 255.608 324.423, 260.328 317.908, 268.611 309.573 C 274.906 303.237, 288.397 292.152, 290.953 291.214 C 291.804 290.902, 294.179 289.601, 296.230 288.323 C 298.282 287.045, 300.607 286, 301.397 286 C 302.187 286, 302.983 285.601, 303.167 285.113 C 303.620 283.907, 320.310 278.009, 326.500 276.868 C 336.841 274.962, 352.631 274.156, 362.010 275.055 C 380.967 276.872, 388.718 278.754, 399.144 284.073 C 401.221 285.133, 403.420 286, 404.031 286 C 404.642 286, 409.723 289.008, 415.321 292.685 C 432.319 303.849, 446.294 319.143, 454.902 336 C 460.424 346.816, 457.989 346.157, 491.145 345.805 C 523.927 345.458, 523.752 345.499, 521.936 338.481 C 521.369 336.291, 520.507 333.600, 520.019 332.500 C 519.531 331.400, 518.552 328.700, 517.843 326.500 C 515.395 318.905, 499.738 290.005, 496.986 288 C 496.608 287.725, 495.145 285.700, 493.735 283.500 C 489.669 277.158, 475.761 262.401, 466.755 254.874 C 451.028 241.729, 437.102 233.283, 419.129 225.990 C 414.933 224.288, 410.600 222.495, 409.500 222.008 C 408.400 221.520, 404.575 220.437, 401 219.602 C 397.425 218.767, 391.800 217.395, 388.500 216.554 C 382.418 215.005, 359.827 212.875, 352.500 213.161 C 350.300 213.247, 343.100 213.648, 336.500 214.053 M 93.538 452.939 C 92.604 454.449, 98.284 476.333, 100.158 478.450 C 100.621 478.973, 101 480.351, 101 481.513 C 101 482.675, 102.125 485.958, 103.500 488.808 C 104.875 491.658, 106 494.347, 106 494.783 C 106 495.936, 117.400 518.626, 120.930 524.500 C 122.582 527.250, 124.686 530.850, 125.604 532.500 C 126.987 534.987, 135.948 547.915, 138.773 551.500 C 139.206 552.050, 142.171 555.784, 145.361 559.798 C 153.001 569.411, 318.037 734.582, 324.500 739.084 C 327.250 740.999, 331.525 743.158, 334 743.881 C 336.475 744.604, 339.281 745.601, 340.236 746.097 C 344.380 748.251, 367.929 746.404, 370.618 743.715 C 371.012 743.322, 372.383 743, 373.667 743 C 374.950 743, 376 742.652, 376 742.227 C 376 741.802, 377.555 740.617, 379.457 739.593 C 383.994 737.150, 549.698 571.174, 559.255 559.500 C 566.772 550.318, 576.429 536.895, 579.400 531.500 C 580.309 529.850, 582.164 526.700, 583.522 524.500 C 590.543 513.132, 599.080 494.535, 603.719 480.500 C 604.810 477.200, 606.688 471.550, 607.893 467.943 C 609.097 464.337, 610.177 459.387, 610.291 456.943 C 610.500 452.500, 610.500 452.500, 564.869 452.240 C 519.237 451.980, 519.237 451.980, 517.489 455.740 C 510.393 470.996, 505.850 479.975, 504.942 480.536 C 504.356 480.898, 503.506 482.169, 503.053 483.360 C 500.345 490.484, 478.958 515.521, 467 525.567 C 453.192 537.167, 444.522 542.785, 428.749 550.354 C 419.383 554.849, 400.412 561.406, 394 562.365 C 392.075 562.653, 388.250 563.393, 385.500 564.009 C 372.119 567.005, 328.547 567.769, 321.860 565.124 C 320.562 564.611, 316.800 563.661, 313.500 563.014 C 307.784 561.894, 292.755 557.651, 288.500 555.958 C 265.599 546.841, 248.433 535.964, 228.619 518.016 C 222.546 512.514, 204 489.231, 204 487.108 C 204 486.590, 203.662 486.017, 203.250 485.833 C 202.193 485.364, 197.844 478.338, 195.306 473 C 184.531 450.344, 190.368 452.528, 139.809 452.240 C 111.450 452.079, 93.906 452.343, 93.538 452.939 M 256 453.560 C 256 455.856, 261.446 463.411, 268.424 470.796 C 295.810 499.780, 340.718 512.727, 379.500 502.818 C 393.355 499.278, 409.979 492.189, 417.649 486.550 C 419.931 484.873, 422.895 482.705, 424.235 481.733 C 432.550 475.704, 449 456.564, 449 452.917 C 449 452.419, 407.258 452.026, 352.500 452.010 C 265.226 451.984, 256 452.132, 256 453.560 M 1346.500 543.196 C 1337.501 545.887, 1334.527 549.497, 1336.184 555.720 C 1336.804 558.047, 1338.294 559.674, 1341.554 561.585 C 1349.266 566.104, 1349.433 566.852, 1349.230 596 C 1349.018 626.251, 1347.556 655.407, 1346.051 659.365 C 1344.983 662.176, 1341.338 665.903, 1339.594 665.967 C 1339.096 665.985, 1337.184 667.148, 1335.344 668.551 C 1332.597 670.646, 1332.006 671.763, 1332.032 674.801 C 1332.072 679.474, 1333.413 681.212, 1339.454 684.424 C 1344.298 687, 1344.298 687, 1386.526 687 C 1422.843 687, 1428.929 686.790, 1430 685.500 C 1430.732 684.618, 1432.916 684, 1435.301 684 C 1439.815 684, 1443.937 682.836, 1451.777 679.348 C 1454.680 678.057, 1457.272 677, 1457.539 677 C 1457.805 677, 1460.674 675.190, 1463.915 672.978 C 1469.488 669.174, 1476.995 661.873, 1477.005 660.247 C 1477.007 659.836, 1478.357 658.062, 1480.005 656.304 C 1481.652 654.547, 1483 652.499, 1483 651.754 C 1483 651.009, 1483.389 649.973, 1483.865 649.450 C 1485.628 647.516, 1489.836 634.265, 1491.001 626.981 C 1492.729 616.179, 1491.374 595.012, 1488.537 588.500 C 1487.818 586.850, 1486.636 583.700, 1485.910 581.500 C 1483.103 572.998, 1473.439 561.131, 1464 554.597 C 1458.222 550.597, 1456.371 549.782, 1445.561 546.485 C 1437.001 543.874, 1435.513 543.741, 1410.561 543.371 C 1396.227 543.158, 1376.625 542.830, 1367 542.642 C 1357.375 542.453, 1348.150 542.703, 1346.500 543.196 M 647 543.891 C 643.425 544.287, 639.150 545.246, 637.500 546.023 C 632.183 548.528, 627 552.231, 627 553.526 C 627 554.219, 626.325 555.045, 625.500 555.362 C 624.675 555.678, 624 556.674, 624 557.575 C 624 559.703, 629.782 567, 631.468 567 C 633.416 567, 639.854 574.551, 640.613 577.725 C 640.977 579.251, 641.570 580.950, 641.929 581.500 C 642.289 582.050, 643.159 584.300, 643.863 586.500 C 644.568 588.700, 645.739 591.850, 646.467 593.500 C 647.194 595.150, 648.339 597.850, 649.011 599.500 C 649.683 601.150, 650.631 603.281, 651.117 604.236 C 651.603 605.191, 652 606.852, 652 607.927 C 652 609.002, 652.400 610.129, 652.889 610.432 C 653.378 610.734, 654.074 612.160, 654.436 613.601 C 654.798 615.042, 655.912 618.084, 656.913 620.360 C 657.913 622.637, 659.961 627.650, 661.463 631.500 C 662.965 635.350, 664.661 639.625, 665.231 641 C 667.057 645.403, 667.786 647.347, 670.482 655 C 671.935 659.125, 673.546 663.281, 674.062 664.236 C 674.578 665.191, 675 666.457, 675 667.048 C 675 668.758, 682.087 682.827, 683.567 684.056 C 686.380 686.390, 692.537 689, 695.231 689 C 698.186 689, 704.370 685.560, 707.133 682.380 C 709.267 679.923, 714 669.774, 714 667.654 C 714 666.744, 714.450 666, 715 666 C 715.550 666, 716 665.127, 716 664.059 C 716 662.991, 716.450 661.840, 717 661.500 C 717.550 661.160, 718 659.983, 718 658.883 C 718 657.784, 719.125 654.870, 720.500 652.407 C 721.875 649.944, 723 647.300, 723 646.530 C 723 645.045, 726.559 635.988, 730.600 627.188 C 732.878 622.227, 733.251 621.897, 736.238 622.188 C 738.480 622.407, 739.802 623.248, 740.656 625 C 742.419 628.618, 746 636.910, 746 637.376 C 746 637.594, 748.025 642.077, 750.500 647.338 C 752.975 652.599, 755 657.365, 755 657.930 C 755 658.494, 756.102 661.328, 757.449 664.228 C 758.795 667.128, 760.685 671.713, 761.649 674.418 C 763.189 678.744, 767.249 683.823, 772.306 687.750 C 773.191 688.438, 775.773 689, 778.044 689 C 781.767 689, 782.752 688.410, 788.086 682.993 C 791.339 679.690, 794 676.351, 794 675.574 C 794 674.798, 794.630 672.888, 795.399 671.331 C 799.686 662.657, 801 659.703, 801 658.742 C 801 656.947, 804.332 650, 805.192 650 C 805.637 650, 806 648.515, 806 646.700 C 806 644.885, 806.369 642.973, 806.820 642.450 C 807.271 641.928, 808.917 638.350, 810.476 634.500 C 812.036 630.650, 813.692 627.072, 814.156 626.550 C 814.620 626.028, 815 624.854, 815 623.943 C 815 623.032, 817.547 615.359, 820.661 606.893 C 830.631 579.780, 832.151 575.562, 833.098 572.372 C 833.609 570.652, 836.273 566.962, 839.019 564.173 C 847.505 555.552, 847.790 551.275, 840.197 546.472 C 835.549 543.531, 835.353 543.501, 821.500 543.562 C 809.515 543.615, 806.826 543.927, 802.821 545.725 C 796.817 548.419, 794.248 552.771, 796.068 557.164 C 797.291 560.117, 802.718 565, 804.777 565 C 807.266 565, 807.419 575.245, 805 579.897 C 804.541 580.779, 803.381 584.200, 802.422 587.500 C 801.463 590.800, 800.338 594.175, 799.923 595 C 799.508 595.825, 798.472 598.108, 797.621 600.072 C 796.758 602.066, 794.871 604.193, 793.350 604.886 C 790.852 606.024, 790.391 605.877, 787.813 603.118 C 786.266 601.463, 785 599.409, 785 598.554 C 785 597.699, 784.550 597, 784 597 C 783.450 597, 783 596.304, 783 595.454 C 783 594.604, 780.864 589.541, 778.252 584.204 C 772.129 571.689, 771.784 566.369, 776.804 561.883 C 781.196 557.960, 781.746 551.833, 777.966 548.960 C 772.139 544.532, 766.690 543.675, 744 543.619 C 725.515 543.573, 721.613 543.836, 716.174 545.495 C 708.416 547.861, 705 550.983, 705 555.708 C 705 559.540, 705.786 560.566, 711.522 564.223 C 713.785 565.665, 716.302 568.428, 717.361 570.629 C 718.384 572.758, 719.622 575.281, 720.111 576.236 C 721.319 578.596, 721.239 586.734, 720 587.500 C 719.450 587.840, 719 589.223, 719 590.573 C 719 591.923, 718.572 593.809, 718.048 594.764 C 717.525 595.719, 716.345 598.196, 715.425 600.270 C 713.257 605.159, 708.536 608.690, 706.465 606.971 C 705.659 606.302, 705 604.958, 705 603.985 C 705 603.011, 704.325 601.955, 703.500 601.638 C 702.675 601.322, 702 600.175, 702 599.090 C 702 598.006, 701.550 596.840, 701 596.500 C 700.450 596.160, 700 595.002, 700 593.927 C 700 592.852, 699.588 591.191, 699.084 590.236 C 698.580 589.281, 697.434 586.700, 696.536 584.500 C 695.638 582.300, 694.475 579.719, 693.952 578.764 C 693.428 577.809, 693 576.148, 693 575.073 C 693 573.998, 692.550 572.840, 692 572.500 C 689.934 571.223, 690.958 566.465, 694.476 561 C 696.297 558.172, 695.876 552.628, 693.657 550.198 C 689.333 545.464, 683.948 544.072, 668.167 543.606 C 660.100 543.367, 650.575 543.496, 647 543.891 M 891 543.983 C 884.840 544.755, 876.397 546.781, 873.764 548.118 C 872.809 548.603, 870.698 549, 869.073 549 C 867.448 549, 865.840 549.450, 865.500 550 C 865.160 550.550, 864.065 551, 863.067 551 C 860.760 551, 852.869 555.382, 850.539 557.957 C 847.832 560.948, 849.348 564.820, 855.305 570.129 C 860.500 574.758, 860.500 574.758, 861.385 586.129 C 862.388 599.008, 862.456 618.904, 861.567 639.500 C 860.847 656.205, 859.087 662.724, 853.872 668.003 C 848.335 673.608, 847.603 675.465, 849.681 678.636 C 852.464 682.883, 858.886 687.067, 861.584 686.390 C 862.864 686.068, 865.342 686.523, 867.107 687.403 C 871.483 689.587, 893.459 689.681, 897.597 687.534 C 899.151 686.728, 901.340 686.287, 902.461 686.554 C 904.728 687.095, 911.412 681.426, 912.482 678.058 C 913.061 676.231, 910.012 668.744, 908.243 667.650 C 907.036 666.904, 907.643 617.535, 908.888 615.210 C 910.230 612.701, 914.985 611.381, 916.155 613.192 C 916.845 614.260, 917.164 614.246, 917.890 613.118 C 919.333 610.880, 925.471 612.555, 927.633 615.777 C 931.391 621.375, 931.970 625.073, 931.970 643.500 C 931.971 662.398, 931.163 667.154, 926.946 673.076 C 925.876 674.579, 925 676.796, 925 678.003 C 925 680.959, 930.548 685.991, 933.856 686.035 C 935.310 686.055, 937.625 686.714, 939 687.500 C 942.782 689.662, 966.191 689.576, 969.531 687.388 C 971.182 686.306, 973.065 685.977, 975.256 686.388 C 978.114 686.924, 979.048 686.489, 982.760 682.885 C 985.092 680.622, 986.988 678.034, 986.973 677.135 C 986.958 676.236, 984.959 673.267, 982.531 670.537 C 978.117 665.575, 978.117 665.575, 977.530 654.537 C 977.207 648.467, 976.711 634.739, 976.429 624.032 C 976.075 610.613, 975.527 604.088, 974.664 603.032 C 973.977 602.189, 972.758 600.150, 971.957 598.500 C 968.558 591.502, 959.093 585.036, 949.996 583.499 C 936.041 581.142, 926.252 584.919, 915.655 596.750 C 914.393 598.158, 912.491 598.999, 910.570 598.998 C 907.500 598.996, 907.500 598.996, 907.212 573.748 C 907.053 559.862, 906.697 547.750, 906.421 546.834 C 905.900 545.106, 900.899 542.890, 898.101 543.147 C 897.220 543.228, 894.025 543.604, 891 543.983 M 1522 543.863 C 1515.778 544.368, 1512.294 545.216, 1509 547.026 C 1502.689 550.495, 1502 551.351, 1502 555.713 C 1502 559.061, 1502.724 560.283, 1507.500 565 C 1511.492 568.943, 1513 571.179, 1513 573.157 C 1513 574.656, 1513.450 576.160, 1514 576.500 C 1515.354 577.337, 1515.311 600.289, 1513.953 601.647 C 1512.695 602.905, 1513.278 633.711, 1514.716 642 C 1516.329 651.296, 1518.961 658.675, 1522.049 662.561 C 1523.672 664.604, 1525 666.609, 1525 667.017 C 1525 667.856, 1535.325 675.878, 1538.712 677.671 C 1549.909 683.599, 1550.775 684, 1552.364 684 C 1553.129 684, 1554.283 684.636, 1554.928 685.414 C 1556.355 687.133, 1563.773 687.966, 1583.398 688.613 C 1593.130 688.933, 1598.661 688.739, 1599.348 688.052 C 1599.927 687.473, 1602.505 687, 1605.078 687 C 1608.015 687, 1610.218 686.442, 1611 685.500 C 1611.685 684.675, 1613.321 684, 1614.636 684 C 1615.951 684, 1617.809 683.588, 1618.764 683.084 C 1619.719 682.580, 1622.075 681.422, 1624 680.511 C 1625.925 679.600, 1628.570 678.254, 1629.879 677.521 C 1633.066 675.734, 1644.937 664.012, 1646.102 661.500 C 1646.612 660.400, 1647.890 658.150, 1648.942 656.500 C 1649.993 654.850, 1650.887 652.064, 1650.927 650.309 C 1650.967 648.554, 1651.450 646.840, 1652 646.500 C 1652.629 646.111, 1653.003 635.064, 1653.008 616.691 C 1653.016 590.682, 1653.954 573.048, 1655.616 567.680 C 1655.925 566.680, 1658.501 564.361, 1661.340 562.529 C 1666.295 559.329, 1671 555.409, 1671 554.479 C 1671 553.347, 1664.069 547.079, 1660.968 545.406 C 1657.912 543.759, 1655.240 543.545, 1638.500 543.606 C 1618.354 543.679, 1615.236 544.269, 1610.262 548.950 C 1604.928 553.968, 1606.868 558.840, 1616.063 563.521 C 1623.812 567.466, 1623.428 565.636, 1624.022 601.397 C 1624.547 632.978, 1624.200 638.509, 1621.219 646.031 C 1620.109 648.832, 1613.149 655.996, 1611.529 656.006 C 1610.963 656.010, 1609.150 656.763, 1607.500 657.681 C 1605.243 658.937, 1602.022 659.342, 1594.500 659.317 C 1585.460 659.286, 1584.020 659.016, 1579.500 656.499 C 1573.827 653.341, 1569.740 649.112, 1567.420 644 C 1566.547 642.075, 1565.359 639.621, 1564.781 638.548 C 1564.157 637.388, 1563.532 625.414, 1563.241 609.048 C 1562.817 585.140, 1562.967 580.988, 1564.376 577.628 C 1565.269 575.498, 1566 572.964, 1566 571.997 C 1566 570.069, 1571.699 564, 1573.510 564 C 1575.374 564, 1579 559.152, 1579 556.659 C 1579 553.031, 1573.184 547.407, 1567.500 545.539 C 1561.783 543.660, 1536.136 542.715, 1522 543.863 M 1398.035 568.934 C 1396.913 571.031, 1396.548 652.709, 1397.642 656.795 C 1397.992 658.103, 1399.905 659.931, 1402.089 661.045 C 1412.562 666.389, 1428.008 659.854, 1433.889 647.592 C 1439.341 636.225, 1439.500 635.401, 1439.500 618.500 C 1439.500 598.514, 1436.785 585.099, 1431.460 578.770 C 1430.107 577.162, 1429 575.476, 1429 575.022 C 1429 574.264, 1424.989 571.532, 1419.136 568.304 C 1417.693 567.508, 1413.321 567, 1407.921 567 C 1400.194 567, 1398.939 567.246, 1398.035 568.934 M 1188.897 583.044 C 1183.754 583.891, 1176.717 588.307, 1172.968 593.041 C 1170.259 596.460, 1169.249 597.059, 1166.623 596.804 C 1163.792 596.528, 1163.388 596.046, 1162.299 591.633 C 1160.282 583.461, 1158.966 582.647, 1149.002 583.404 C 1144.328 583.759, 1139.153 584.458, 1137.502 584.957 C 1135.851 585.456, 1132.475 586.382, 1130 587.015 C 1119.906 589.595, 1117.428 590.416, 1115.921 591.678 C 1115.053 592.405, 1113.953 593, 1113.476 593 C 1112.999 593, 1111.347 594.209, 1109.805 595.687 C 1107.597 597.802, 1107 599.275, 1107 602.606 C 1107 606.299, 1107.413 607.093, 1110.250 608.852 C 1118.325 613.860, 1118.003 612.755, 1117.978 635.289 C 1117.954 657.594, 1117.018 661.977, 1111.508 665.587 C 1107.529 668.194, 1104.201 673.603, 1104.764 676.548 C 1105.028 677.925, 1107.326 680.856, 1109.872 683.060 C 1113.793 686.455, 1114.989 686.980, 1117.697 686.498 C 1119.574 686.164, 1122.413 686.563, 1124.569 687.465 C 1129.193 689.397, 1158.894 689.706, 1160.758 687.842 C 1161.395 687.205, 1164.168 686.638, 1166.922 686.580 C 1171.334 686.489, 1172.406 686.010, 1175.964 682.535 C 1183.028 675.638, 1181.037 669.652, 1170.115 664.954 C 1166.666 663.470, 1164.833 662.044, 1164.547 660.621 C 1164.313 659.455, 1163.801 657.150, 1163.409 655.500 C 1163.017 653.850, 1162.517 646.647, 1162.297 639.494 C 1161.675 619.220, 1164.879 614.663, 1174.397 622.286 C 1181.790 628.207, 1183.607 629, 1189.786 629 C 1199.629 629, 1206.492 624.468, 1211.121 614.912 C 1214.039 608.887, 1214.096 608.498, 1213.003 602.021 C 1212.122 596.792, 1211.076 594.346, 1208.188 590.757 C 1206.160 588.235, 1203.600 585.855, 1202.500 585.467 C 1196.220 583.252, 1192.098 582.518, 1188.897 583.044 M 1039 583.617 C 1032.581 584.860, 1023.331 588.385, 1020.718 590.584 C 1019.130 591.920, 1017.482 592.798, 1017.057 592.535 C 1015.485 591.564, 1002.342 606.511, 999.502 612.500 C 997.937 615.800, 995.999 619.277, 995.195 620.226 C 993.023 622.791, 993.111 647.601, 995.307 651.620 C 996.172 653.204, 998.060 656.975, 999.502 660 C 1002.415 666.110, 1012.466 676.962, 1018.250 680.242 C 1020.313 681.411, 1022 682.735, 1022 683.184 C 1022 683.633, 1022.916 684, 1024.035 684 C 1025.155 684, 1027.165 684.717, 1028.503 685.594 C 1029.841 686.471, 1031.513 686.979, 1032.218 686.724 C 1032.923 686.469, 1035.017 686.876, 1036.872 687.630 C 1040.962 689.291, 1056.126 689.474, 1057.719 687.881 C 1058.334 687.266, 1060.643 686.787, 1062.849 686.817 C 1065.176 686.849, 1067.361 686.270, 1068.053 685.436 C 1068.708 684.646, 1069.871 684, 1070.636 684 C 1071.401 684, 1072.809 683.600, 1073.764 683.111 C 1074.719 682.622, 1077.230 681.384, 1079.344 680.361 C 1083.859 678.176, 1093 669.529, 1093 667.445 C 1093 666.650, 1093.450 666, 1094 666 C 1096.211 666, 1094.777 661.304, 1091.633 658.250 C 1087.746 654.474, 1085.754 654.243, 1081.171 657.037 C 1077.391 659.342, 1068.436 662.068, 1062.500 662.720 C 1056.672 663.361, 1048.438 659.939, 1042.801 654.534 C 1036.584 648.572, 1034.592 641.391, 1038.427 638.765 C 1039.017 638.361, 1050.601 638.024, 1064.169 638.015 C 1091.103 637.999, 1093.527 637.542, 1096.080 632.003 C 1096.714 630.626, 1097.631 628.719, 1098.117 627.764 C 1099.318 625.403, 1099.236 618.264, 1098 617.500 C 1097.450 617.160, 1097.007 615.896, 1097.016 614.691 C 1097.041 611.190, 1091.850 602.014, 1087.500 597.870 C 1080.636 591.330, 1075.129 587.909, 1067 585.134 C 1063.315 583.876, 1043.268 582.790, 1039 583.617 M 1266 583.594 C 1257.721 585.094, 1250.317 587.496, 1249 589.109 C 1248.725 589.446, 1247.150 590.428, 1245.500 591.293 C 1241.264 593.512, 1230.494 604.348, 1227.852 609.049 C 1226.631 611.222, 1225.265 613, 1224.816 613 C 1224.367 613, 1224 613.873, 1224 614.941 C 1224 616.009, 1223.550 617.160, 1223 617.500 C 1222.450 617.840, 1222 619.432, 1222 621.039 C 1222 622.645, 1221.284 625.749, 1220.409 627.936 C 1219.329 630.636, 1218.969 633.772, 1219.290 637.706 C 1219.836 644.416, 1221.809 653.073, 1223.105 654.450 C 1223.597 654.972, 1224 656.016, 1224 656.770 C 1224 658.748, 1229.605 666.643, 1235.452 672.903 C 1241.258 679.117, 1248.380 684, 1251.637 684 C 1252.872 684, 1254.160 684.450, 1254.500 685 C 1254.840 685.550, 1256.116 686, 1257.337 686 C 1258.557 686, 1260.561 686.705, 1261.791 687.566 C 1265.444 690.125, 1288.636 688.493, 1294.500 685.265 C 1295.600 684.659, 1298.525 683.203, 1301 682.028 C 1309.629 677.934, 1314.127 674.764, 1316.443 671.144 C 1320.034 665.533, 1320.318 662.769, 1317.702 658.878 C 1314.979 654.827, 1312.396 654.266, 1307.875 656.743 C 1306.019 657.760, 1302.475 659.187, 1300 659.912 C 1297.525 660.638, 1294.326 661.658, 1292.891 662.179 C 1286.835 664.377, 1279.681 662.777, 1272.151 657.543 C 1264.962 652.544, 1260.696 642.704, 1264.200 639.200 C 1265.069 638.331, 1272.234 638, 1290.153 638 C 1306.066 638, 1315.770 637.606, 1317.327 636.897 C 1318.658 636.290, 1320.704 634.092, 1321.874 632.011 C 1326.172 624.364, 1323.704 612.176, 1315.630 601.177 C 1311.325 595.312, 1300.570 587.675, 1293.500 585.461 C 1288.565 583.916, 1270.856 582.714, 1266 583.594 M 1040.878 603.328 C 1037.432 606.183, 1036 609.105, 1036 613.279 C 1036 618.938, 1038.292 620.130, 1048.520 619.791 C 1056.630 619.522, 1057.437 619.305, 1059.221 616.910 C 1060.720 614.899, 1060.994 613.483, 1060.446 610.566 C 1059.282 604.360, 1056.463 602.042, 1049.500 601.566 C 1044.444 601.220, 1043.087 601.498, 1040.878 603.328 M 1268 602.793 C 1266.625 603.723, 1264.952 605.163, 1264.282 605.992 C 1262.703 607.946, 1262.644 617.244, 1264.200 618.800 C 1264.948 619.548, 1268.654 620, 1274.045 620 C 1284.378 620, 1286 618.889, 1286 611.808 C 1286 605.802, 1282.490 602, 1276.945 602 C 1274.865 602, 1272.564 601.798, 1271.832 601.551 C 1271.099 601.303, 1269.375 601.862, 1268 602.793" stroke="none" fill="#068b47" fill-rule="evenodd"/></svg>